<?xml version="1.0" standalone="no"?>
<!DOCTYPE svg PUBLIC "-//W3C//DTD SVG 20010904//EN"
 "http://www.w3.org/TR/2001/REC-SVG-20010904/DTD/svg10.dtd">
<svg version="1.0" xmlns="http://www.w3.org/2000/svg"
 width="371.000000pt" height="371.000000pt" viewBox="0 0 371.000000 371.000000"
 preserveAspectRatio="xMidYMid meet">
<metadata>
Created by potrace 1.11, written by Peter Selinger 2001-2013
</metadata>
<g transform="translate(0.000000,371.000000) scale(0.100000,-0.100000)"
fill="#000000" stroke="none">
<path d="M1599 3696 c-2 -2 -47 -7 -99 -11 -52 -4 -98 -9 -101 -10 -3 -2 -27
-6 -55 -10 -27 -3 -74 -10 -104 -15 -30 -5 -71 -12 -90 -15 -217 -36 -592
-159 -835 -275 -157 -75 -193 -118 -183 -215 9 -79 72 -140 153 -148 43 -4 18
40 275 -477 78 -157 146 -289 150 -293 4 -5 4 -25 -1 -45 -14 -59 -10 -164 7
-221 37 -127 121 -228 239 -289 37 -19 47 -35 153 -249 62 -125 117 -235 121
-243 4 -8 40 -80 80 -160 40 -80 76 -152 80 -160 8 -14 106 -211 326 -650 93
-186 114 -214 156 -203 13 4 81 130 229 425 199 397 213 422 266 470 79 73
114 149 118 258 2 38 76 193 451 943 277 554 454 896 461 893 20 -8 88 15 116
38 77 68 81 186 7 255 -86 80 -671 294 -919 336 -19 3 -53 10 -75 15 -22 5
-62 12 -90 16 -27 3 -58 8 -69 10 -10 2 -41 6 -70 9 -28 3 -67 8 -86 11 -42 6
-605 15 -611 10z"/>
</g>
</svg>
